<?xml version="1.0" encoding="UTF-8" standalone="no"?>
<!-- Created with Inkscape (http://www.inkscape.org/) -->

<svg
   width="3912.2625"
   height="673.71564"
   viewBox="0 0 3912.2625 673.71564"
   version="1.1"
   id="svg1"
   xml:space="preserve"
   inkscape:version="1.3.2 (091e20e, 2023-11-25, custom)"
   sodipodi:docname="logotype.svg"
   xmlns:inkscape="http://www.inkscape.org/namespaces/inkscape"
   xmlns:sodipodi="http://sodipodi.sourceforge.net/DTD/sodipodi-0.dtd"
   xmlns:xlink="http://www.w3.org/1999/xlink"
   xmlns="http://www.w3.org/2000/svg"
   xmlns:svg="http://www.w3.org/2000/svg"><sodipodi:namedview
     id="namedview1"
     pagecolor="#ffffff"
     bordercolor="#000000"
     borderopacity="0.25"
     inkscape:showpageshadow="2"
     inkscape:pageopacity="0.0"
     inkscape:pagecheckerboard="0"
     inkscape:deskcolor="#d1d1d1"
     inkscape:document-units="px"
     inkscape:zoom="0.171875"
     inkscape:cx="2437.8182"
     inkscape:cy="-215.27273"
     inkscape:window-width="1920"
     inkscape:window-height="1000"
     inkscape:window-x="-11"
     inkscape:window-y="-11"
     inkscape:window-maximized="1"
     inkscape:current-layer="layer1" /><defs
     id="defs1"><linearGradient
   id="linearGradient4"
   inkscape:collect="always"><stop
     style="stop-color:#042743;stop-opacity:1;"
     offset="0"
     id="stop4" /><stop
     style="stop-color:#2196f3;stop-opacity:1;"
     offset="1"
     id="stop5" /></linearGradient><rect
   x="820.36365"
   y="535.27271"
   width="1594.1818"
   height="494.54544"
   id="rect2" />
	
	
	
	
<linearGradient
   inkscape:collect="always"
   xlink:href="#linearGradient4"
   id="linearGradient5"
   x1="1462.9816"
   y1="955.79999"
   x2="4472.2627"
   y2="955.79999"
   gradientUnits="userSpaceOnUse"
   gradientTransform="translate(0,-13.254506)" /></defs><g
     inkscape:label="Layer 1"
     inkscape:groupmode="layer"
     id="layer1"
     transform="translate(-559.99999,-605.68764)"><g
       id="g5"><path
         class="st0"
         d="m 767.88749,731.94857 c -2.59844,0 -5.15,0.52657 -7.56406,1.55625 -31.30625,13.44688 -56.43594,37.84063 -70.79063,68.70782 -2.15781,4.63437 -2.37812,9.84375 -0.625,14.64844 1.75313,4.81718 5.28438,8.66562 9.95469,10.83749 2.5625,1.18907 5.27031,1.79063 8.07812,1.79063 7.44063,0 14.28125,-4.36563 17.40625,-11.11875 10.38438,-22.29688 28.52501,-39.9125 51.11719,-49.57187 4.70782,-2.02188 8.34688,-5.75 10.26094,-10.51876 1.9,-4.75625 1.83906,-9.97812 -0.18438,-14.68437 -3.02812,-7.075 -9.96718,-11.64688 -17.65312,-11.64688 z"
         id="path1-2"
         style="fill:#042743;fill-opacity:1;stroke-width:1.5625" /><path
         class="st0"
         d="m 1069.1469,860.26733 c -0.025,-140.34532 -114.23441,-254.55469 -254.58129,-254.57969 -140.34375,0.025 -254.54218,114.23437 -254.56562,254.57969 0.0234,140.34527 114.22187,254.54377 254.56719,254.56877 140.34531,-0.025 254.55472,-114.2235 254.57972,-254.56877 z M 814.56718,1064.958 c -54.64688,-0.013 -106.04531,-21.3063 -144.73281,-59.9563 -38.65,-38.7 -59.94375,-90.1 -59.95626,-144.73437 0.0125,-54.65938 21.30469,-106.05782 59.95626,-144.73438 38.71093,-38.66094 90.11093,-59.95469 144.73281,-59.96719 54.63594,0.0125 106.03437,21.30625 144.73437,59.96719 38.6625,38.7 59.95625,90.1 59.96875,144.73437 -0.013,54.62344 -21.30468,106.02188 -59.96875,144.73438 -38.6875,38.65 -90.08593,59.9438 -144.73437,59.9563 z"
         id="path2-1"
         style="fill:#042743;fill-opacity:1;stroke-width:1.5625" /><path
         class="st0"
         d="m 1227.9031,651.63139 c -72.8125,0.0125 -132.0812,59.26875 -132.1078,132.09531 0.025,72.81406 59.2938,132.07031 132.1078,132.09531 72.8141,-0.025 132.0719,-59.28125 132.0969,-132.09531 -0.025,-72.82656 -59.2813,-132.08281 -132.0969,-132.09531 z m 58.1297,190.25 c -15.5672,15.50625 -36.2109,24.05 -58.1297,24.0625 -21.9297,-0.0125 -42.5734,-8.55625 -58.1531,-24.075 -15.5063,-15.56719 -24.05,-36.21094 -24.0625,-58.14063 0.013,-21.92968 8.5562,-42.57187 24.075,-58.15469 15.5672,-15.50625 36.2109,-24.05 58.1406,-24.0625 21.9188,0.0125 42.5625,8.55782 58.1422,24.075 15.5063,15.56875 24.0625,36.225 24.075,58.14219 -0.011,21.91563 -8.5687,42.57188 -24.0875,58.15313 z"
         id="path3-2"
         style="fill:#2196f3;fill-opacity:1;stroke-width:1.5625" /><path
         class="st0"
         d="m 1105.4312,935.24076 c -4.1921,16.30313 -9.7828,32.2875 -16.6468,47.63594 25.2281,4.3875 48.064,16.21719 66.2937,34.4219 23.475,23.5109 36.3938,54.7328 36.4078,87.9031 -0.012,33.1719 -12.9328,64.3937 -36.4078,87.9031 -23.5125,23.475 -54.7344,36.4078 -87.9031,36.4203 -33.1719,-0.013 -64.3938,-12.9437 -87.91563,-36.4203 -17.21094,-17.2344 -28.78282,-38.7844 -33.68594,-62.5656 -15.10313,7.3297 -30.85313,13.3969 -46.9625,18.0812 19.77344,77.1657 88.59219,130.7594 168.56567,130.7829 96.0312,-0.024 174.1765,-78.1704 174.2015,-174.2016 -0.026,-81.3469 -56.9906,-152.24844 -135.9469,-169.96094 z"
         id="path4"
         style="fill:#042743;fill-opacity:1;stroke-width:1.5625" /></g><text
       xml:space="preserve"
       id="text2"
       style="white-space:pre;shape-inside:url(#rect2);fill:#000000;fill-opacity:1;stroke:#000000;stroke-opacity:0" /><text
       xml:space="preserve"
       style="font-size:768px;fill:url(#linearGradient5);fill-opacity:1;stroke:#000000;stroke-width:64;stroke-opacity:0"
       x="1455.8136"
       y="1211.3455"
       id="text3"><tspan
         sodipodi:role="line"
         id="tspan3"
         x="1455.8136"
         y="1211.3455"
         style="font-style:normal;font-variant:normal;font-weight:normal;font-stretch:normal;font-family:'Bebas Kai';-inkscape-font-specification:'Bebas Kai';fill:url(#linearGradient5);fill-opacity:1;stroke-width:64">Urbanwash</tspan></text></g><style
     type="text/css"
     id="style1">
	.st0{fill:#000000;}
</style></svg>
